<?xml version="1.0" encoding="utf-8"?>
<svg xmlns="http://www.w3.org/2000/svg" viewBox="32.771 148.957 436.445 184.211" xmlns:bx="https://boxy-svg.com">
  <defs>
    <style bx:fonts="Anek Devanagari">@import url(https://fonts.googleapis.com/css2?family=Anek+Devanagari%3Aital%2Cwght%400%2C100..800&amp;display=swap);</style>
    <linearGradient id="color-0" gradientUnits="userSpaceOnUse" bx:pinned="true" gradientTransform="matrix(8.987331, 0.147645, -0.081498, 8.842539, -229.979835, 311.831813)">
      <stop style="stop-color: rgb(239, 67, 67);"/>
    </linearGradient>
    <bx:export>
      <bx:file format="png"/>
    </bx:export>
    <style bx:fonts="Amiko">@import url(https://fonts.googleapis.com/css2?family=Amiko%3Aital%2Cwght%400%2C400%3B0%2C600%3B0%2C700&amp;display=swap);</style>
  </defs>
  <g transform="matrix(1, 0, 0, 1, -18.369919, 5.669624)">
    <text style="fill: url(&quot;#color-0&quot;); font-family: &quot;Anek Devanagari&quot;; font-size: 84px; font-weight: 526; letter-spacing: 0.1px; white-space: pre; text-rendering: optimizelegibility;" x="227.22" y="199.972" transform="matrix(1, 0, 0, 0.988191, -25.322742, 45.20808)">Cyonex</text>
    <text style="fill: url(&quot;#color-0&quot;); font-family: &quot;Amiko&quot;; font-size: 68px; letter-spacing: 9.9px; white-space: pre;" transform="matrix(0.997227, 0, 0, 0.989361, -28.674782, -16.726831)" x="233.039" y="322.811">Lab</text>
    <path d="M 124.152 191.481 C 130.363 190.411 134.768 184.836 134.381 178.546 C 133.994 172.253 128.944 167.26 122.651 166.957 C 116.343 166.654 110.841 171.137 109.841 177.362 C 108.857 183.588 112.713 189.561 118.796 191.222 L 118.796 235.575 L 134.574 255.936 L 134.574 309.179 C 134.574 310.658 135.768 311.857 137.251 311.857 C 138.731 311.857 139.929 310.658 139.929 309.179 L 139.929 254.113 L 124.152 233.736 L 124.152 191.481 Z M 114.972 179.299 C 114.972 175.378 118.15 172.2 122.071 172.2 C 125.991 172.2 129.17 175.378 129.17 179.299 C 129.17 183.22 125.991 186.398 122.071 186.398 C 118.15 186.388 114.972 183.217 114.972 179.299 Z M 100.951 219.634 C 100.968 214.019 97.191 209.099 91.771 207.644 C 86.35 206.19 80.622 208.565 77.815 213.431 C 75.023 218.299 75.847 224.441 79.815 228.401 C 83.8 232.359 89.948 233.146 94.804 230.315 L 121.489 262.971 L 121.489 309.211 C 121.489 310.691 122.684 311.89 124.168 311.89 C 125.652 311.89 126.847 310.691 126.847 309.211 L 126.847 261.051 L 98.708 226.701 C 100.16 224.641 100.935 222.185 100.951 219.667 L 100.951 219.634 Z M 81.477 219.634 C 81.477 215.714 84.656 212.535 88.576 212.535 C 92.497 212.535 95.675 215.714 95.675 219.634 C 95.675 223.555 92.497 226.734 88.576 226.734 C 84.672 226.715 81.51 223.565 81.493 219.667 L 81.477 219.634 Z M 195.399 223.684 C 195.407 217.194 190.4 211.8 183.929 211.326 C 177.456 210.851 171.715 215.458 170.778 221.879 C 169.841 228.3 174.022 234.357 180.361 235.753 L 180.361 261.712 L 161.339 280.961 L 161.339 309.211 C 161.339 310.167 161.849 311.052 162.679 311.53 C 163.506 312.009 164.528 312.009 165.357 311.53 C 166.185 311.052 166.696 310.167 166.696 309.211 L 166.696 283.155 L 185.718 263.923 L 185.718 235.785 C 191.381 234.536 195.415 229.515 195.415 223.717 L 195.399 223.684 Z M 183.169 230.784 L 182.911 230.784 C 179.029 230.48 176.115 227.104 176.381 223.22 C 176.648 219.336 179.993 216.39 183.881 216.619 C 187.769 216.848 190.746 220.165 190.555 224.054 C 190.363 227.944 187.075 230.953 183.185 230.8 L 183.169 230.784 Z M 163.243 211.342 C 163.245 204.851 158.232 199.462 151.759 198.994 C 145.286 198.528 139.551 203.141 138.621 209.564 C 137.692 215.988 141.881 222.038 148.222 223.426 C 148.216 223.523 148.216 223.619 148.222 223.717 L 148.222 309.227 C 148.222 310.706 149.422 311.905 150.901 311.905 C 152.38 311.905 153.579 310.706 153.579 309.227 L 153.579 223.717 C 153.584 223.619 153.584 223.523 153.579 223.426 C 159.236 222.163 163.253 217.137 163.243 211.342 Z M 150.933 218.441 C 147.012 218.441 143.834 215.263 143.834 211.342 C 143.834 207.421 147.012 204.243 150.933 204.243 C 154.854 204.243 158.032 207.421 158.032 211.342 C 158.022 215.259 154.85 218.431 150.933 218.441 Z" fill="#ef4343" style="stroke-width: 1px;"/>
  </g>
</svg>